<svg width="1200" height="780" viewBox="0 0 1200 780" fill="none" xmlns="http://www.w3.org/2000/svg">
  <rect width="1200" height="780" rx="42" fill="#F3F6FC"/>
  <rect x="36" y="36" width="1128" height="708" rx="32" fill="#FFFFFF"/>
  <rect x="36" y="36" width="264" height="708" rx="32" fill="#0F1E47"/>
  <rect x="84" y="84" width="132" height="16" rx="8" fill="#FFFFFF" fill-opacity="0.86"/>
  <rect x="84" y="114" width="98" height="10" rx="5" fill="#FFFFFF" fill-opacity="0.42"/>
  <rect x="72" y="176" width="192" height="56" rx="18" fill="#FFFFFF" fill-opacity="0.08"/>
  <rect x="72" y="248" width="192" height="56" rx="18" fill="#FFFFFF" fill-opacity="0.08"/>
  <rect x="72" y="320" width="192" height="56" rx="18" fill="#FF8A00" fill-opacity="0.18"/>
  <rect x="72" y="392" width="192" height="56" rx="18" fill="#FFFFFF" fill-opacity="0.08"/>
  <rect x="336" y="36" width="828" height="96" rx="32" fill="#FFFFFF"/>
  <rect x="384" y="72" width="186" height="14" rx="7" fill="#14295F"/>
  <rect x="384" y="96" width="142" height="10" rx="5" fill="#14295F" fill-opacity="0.35"/>
  <rect x="970" y="66" width="146" height="36" rx="18" fill="#FFF4E8"/>
  <rect x="336" y="168" width="256" height="136" rx="28" fill="#F8FAFF"/>
  <rect x="620" y="168" width="256" height="136" rx="28" fill="#FFF6EE"/>
  <rect x="904" y="168" width="224" height="136" rx="28" fill="#FFF3F5"/>
  <rect x="372" y="206" width="102" height="14" rx="7" fill="#14295F" fill-opacity="0.18"/>
  <rect x="372" y="242" width="144" height="22" rx="11" fill="#14295F"/>
  <rect x="656" y="206" width="122" height="14" rx="7" fill="#D96809" fill-opacity="0.22"/>
  <rect x="656" y="242" width="116" height="22" rx="11" fill="#FF8A00"/>
  <rect x="940" y="206" width="108" height="14" rx="7" fill="#D14A74" fill-opacity="0.22"/>
  <rect x="940" y="242" width="96" height="22" rx="11" fill="#D14A74"/>
  <rect x="336" y="340" width="510" height="352" rx="28" fill="#F8FAFF"/>
  <rect x="882" y="340" width="246" height="352" rx="28" fill="#FFF8F3"/>
  <rect x="372" y="378" width="176" height="14" rx="7" fill="#14295F" fill-opacity="0.18"/>
  <rect x="372" y="430" width="438" height="56" rx="20" fill="#FFFFFF"/>
  <rect x="372" y="502" width="438" height="56" rx="20" fill="#FFF4E8"/>
  <rect x="372" y="574" width="438" height="56" rx="20" fill="#FFFFFF"/>
  <rect x="918" y="378" width="122" height="14" rx="7" fill="#D96809" fill-opacity="0.22"/>
  <rect x="918" y="426" width="162" height="46" rx="18" fill="#FFFFFF"/>
  <rect x="918" y="490" width="162" height="46" rx="18" fill="#FFFFFF"/>
  <rect x="918" y="554" width="162" height="46" rx="18" fill="#FFFFFF"/>
  <rect x="918" y="618" width="162" height="38" rx="19" fill="#FF8A00"/>
</svg>
