<svg width="332" height="556" viewBox="0 0 332 556" fill="none" xmlns="http://www.w3.org/2000/svg">
  <defs>
    <linearGradient id="pageBg" x1="166" y1="0" x2="166" y2="556" gradientUnits="userSpaceOnUse">
      <stop stop-color="#F7FAFF"/>
      <stop offset="1" stop-color="#EEF5FF"/>
    </linearGradient>
    <linearGradient id="cardBg" x1="0" y1="0" x2="0" y2="1">
      <stop stop-color="#FFFFFF"/>
      <stop offset="1" stop-color="#FDFEFF"/>
    </linearGradient>
    <linearGradient id="blueBar" x1="0" y1="0" x2="1" y2="0">
      <stop stop-color="#1E4FD8"/>
      <stop offset="1" stop-color="#6C9CFF"/>
    </linearGradient>
    <linearGradient id="greenCard" x1="0" y1="0" x2="1" y2="1">
      <stop stop-color="#F5FFFC"/>
      <stop offset="1" stop-color="#F4FBF8"/>
    </linearGradient>
    <linearGradient id="amberCard" x1="0" y1="0" x2="1" y2="1">
      <stop stop-color="#FFFDF8"/>
      <stop offset="1" stop-color="#FFF7E8"/>
    </linearGradient>
    <filter id="shadow" x="0" y="0" width="332" height="556" filterUnits="userSpaceOnUse" color-interpolation-filters="sRGB">
      <feFlood flood-opacity="0" result="BackgroundImageFix"/>
      <feColorMatrix in="SourceAlpha" type="matrix" values="0 0 0 0 0 0 0 0 0 0 0 0 0 0 0 0 0 0 127 0" result="hardAlpha"/>
      <feOffset dy="10"/>
      <feGaussianBlur stdDeviation="10"/>
      <feColorMatrix type="matrix" values="0 0 0 0 0.0784314 0 0 0 0 0.160784 0 0 0 0 0.372549 0 0 0 0.12 0"/>
      <feBlend mode="normal" in2="BackgroundImageFix" result="effect1_dropShadow_1_1"/>
      <feBlend mode="normal" in="SourceGraphic" in2="effect1_dropShadow_1_1" result="shape"/>
    </filter>
  </defs>

  <g filter="url(#shadow)">
    <rect x="4" y="4" width="324" height="516" rx="28" fill="url(#pageBg)"/>

    <rect x="4" y="4" width="104" height="196" rx="18" fill="url(#cardBg)"/>
    <rect x="114" y="4" width="104" height="196" rx="18" fill="url(#cardBg)"/>
    <rect x="224" y="4" width="104" height="196" rx="18" fill="url(#cardBg)"/>

    <text x="16" y="24" fill="#7A8CAA" font-size="9" font-weight="700" font-family="Arial, Apple SD Gothic Neo, Noto Sans KR, sans-serif">학습시간</text>
    <text x="16" y="36" fill="#7A8CAA" font-size="9" font-weight="700" font-family="Arial, Apple SD Gothic Neo, Noto Sans KR, sans-serif">그래프</text>
    <text x="16" y="61" fill="#121A2B" font-size="17" font-weight="800" font-family="Arial, Apple SD Gothic Neo, Noto Sans KR, sans-serif">최근7일</text>
    <text x="16" y="82" fill="#121A2B" font-size="17" font-weight="800" font-family="Arial, Apple SD Gothic Neo, Noto Sans KR, sans-serif">+ 오늘</text>
    <rect x="56" y="26" width="42" height="16" rx="8" fill="#EEF4FF"/>
    <text x="65" y="37" fill="#2F64F6" font-size="8.5" font-weight="800" font-family="Arial, Apple SD Gothic Neo, Noto Sans KR, sans-serif">6시간 8분</text>
    <rect x="41" y="96" width="30" height="10" rx="5" fill="#F2F6FB"/>
    <text x="47" y="103" fill="#7A8CAA" font-size="6.5" font-weight="800" font-family="Arial, Apple SD Gothic Neo, Noto Sans KR, sans-serif">평균 4시간 51분</text>
    <rect x="18" y="171" width="8" height="12" rx="4" fill="#D9E4F3"/>
    <rect x="32" y="164" width="8" height="19" rx="4" fill="#D9E4F3"/>
    <rect x="46" y="172" width="8" height="11" rx="4" fill="#D9E4F3"/>
    <rect x="60" y="157" width="8" height="26" rx="4" fill="#D9E4F3"/>
    <rect x="74" y="110" width="8" height="73" rx="4" fill="#D9E4F3"/>
    <rect x="88" y="155" width="8" height="28" rx="4" fill="#376BEF"/>
    <text x="17" y="191" fill="#677D9B" font-size="7" font-weight="700" font-family="Arial, Apple SD Gothic Neo, Noto Sans KR, sans-serif">6-3</text>
    <text x="31" y="191" fill="#677D9B" font-size="7" font-weight="700" font-family="Arial, Apple SD Gothic Neo, Noto Sans KR, sans-serif">6-3</text>
    <text x="45" y="191" fill="#677D9B" font-size="7" font-weight="700" font-family="Arial, Apple SD Gothic Neo, Noto Sans KR, sans-serif">6-3</text>
    <text x="59" y="191" fill="#677D9B" font-size="7" font-weight="700" font-family="Arial, Apple SD Gothic Neo, Noto Sans KR, sans-serif">6-5</text>
    <text x="73" y="191" fill="#677D9B" font-size="7" font-weight="700" font-family="Arial, Apple SD Gothic Neo, Noto Sans KR, sans-serif">6-5</text>
    <text x="87" y="191" fill="#677D9B" font-size="7" font-weight="700" font-family="Arial, Apple SD Gothic Neo, Noto Sans KR, sans-serif">오늘</text>

    <text x="126" y="24" fill="#7A8CAA" font-size="9" font-weight="700" font-family="Arial, Apple SD Gothic Neo, Noto Sans KR, sans-serif">핵심 상태 그래프</text>
    <text x="126" y="49" fill="#121A2B" font-size="15.5" font-weight="800" font-family="Arial, Apple SD Gothic Neo, Noto Sans KR, sans-serif">학습 · 완료 · 성장 · 루틴</text>
    <circle cx="166" cy="108" r="39" stroke="#E8EEF7" stroke-dasharray="2.5 4"/>
    <circle cx="166" cy="108" r="26" stroke="#E8EEF7" stroke-dasharray="2.5 4"/>
    <circle cx="166" cy="108" r="13" stroke="#E8EEF7" stroke-dasharray="2.5 4"/>
    <line x1="166" y1="65" x2="166" y2="151" stroke="#E8EEF7"/>
    <line x1="124" y1="108" x2="208" y2="108" stroke="#E8EEF7"/>
    <polygon points="166,73 198,108 171,147 139,108" fill="#DCE8FF" stroke="#2A61EE" stroke-width="2"/>
    <circle cx="166" cy="73" r="3.5" fill="#173F97"/>
    <circle cx="198" cy="108" r="3.5" fill="#173F97"/>
    <circle cx="171" cy="147" r="3.5" fill="#173F97"/>
    <circle cx="139" cy="108" r="3.5" fill="#173F97"/>

    <text x="236" y="24" fill="#2A61EE" font-size="9" font-weight="800" font-family="Arial, Apple SD Gothic Neo, Noto Sans KR, sans-serif">습관 형성</text>
    <rect x="232" y="62" width="88" height="26" rx="12" fill="#F8FAFF"/>
    <text x="240" y="77" fill="#1A1F2D" font-size="9.5" font-weight="800" font-family="Arial, Apple SD Gothic Neo, Noto Sans KR, sans-serif">학습</text>
    <text x="295" y="77" fill="#111827" font-size="10" font-weight="800" font-family="Arial, Apple SD Gothic Neo, Noto Sans KR, sans-serif">100%</text>
    <rect x="236" y="84" width="64" height="6" rx="3" fill="#E9F0FB"/>
    <rect x="236" y="84" width="64" height="6" rx="3" fill="url(#blueBar)"/>
    <rect x="232" y="100" width="88" height="26" rx="12" fill="#F8FAFF"/>
    <text x="240" y="115" fill="#1A1F2D" font-size="9.5" font-weight="800" font-family="Arial, Apple SD Gothic Neo, Noto Sans KR, sans-serif">완료</text>
    <text x="298" y="115" fill="#111827" font-size="10" font-weight="800" font-family="Arial, Apple SD Gothic Neo, Noto Sans KR, sans-serif">10%</text>
    <rect x="236" y="122" width="64" height="6" rx="3" fill="#E9F0FB"/>
    <rect x="236" y="122" width="9" height="6" rx="3" fill="url(#blueBar)"/>
    <rect x="232" y="138" width="88" height="26" rx="12" fill="#F8FAFF"/>
    <text x="240" y="153" fill="#1A1F2D" font-size="9.5" font-weight="800" font-family="Arial, Apple SD Gothic Neo, Noto Sans KR, sans-serif">성장</text>
    <text x="295" y="153" fill="#111827" font-size="10" font-weight="800" font-family="Arial, Apple SD Gothic Neo, Noto Sans KR, sans-serif">100%</text>
    <rect x="236" y="160" width="64" height="6" rx="3" fill="#E9F0FB"/>
    <rect x="236" y="160" width="64" height="6" rx="3" fill="url(#blueBar)"/>
    <rect x="232" y="176" width="88" height="20" rx="10" fill="#F8FAFF"/>
    <text x="240" y="189" fill="#1A1F2D" font-size="9.5" font-weight="800" font-family="Arial, Apple SD Gothic Neo, Noto Sans KR, sans-serif">루틴</text>
    <text x="295" y="189" fill="#111827" font-size="10" font-weight="800" font-family="Arial, Apple SD Gothic Neo, Noto Sans KR, sans-serif">72%</text>
    <rect x="236" y="191" width="64" height="5" rx="2.5" fill="#E9F0FB"/>
    <rect x="236" y="191" width="46" height="5" rx="2.5" fill="url(#blueBar)"/>

    <rect x="4" y="206" width="104" height="114" rx="18" fill="url(#cardBg)"/>
    <rect x="114" y="206" width="104" height="114" rx="18" fill="url(#cardBg)"/>
    <rect x="224" y="206" width="104" height="114" rx="18" fill="url(#cardBg)"/>

    <text x="16" y="228" fill="#7A8CAA" font-size="9" font-weight="700" font-family="Arial, Apple SD Gothic Neo, Noto Sans KR, sans-serif">상태 요약</text>
    <rect x="16" y="240" width="77" height="18" rx="9" fill="#EFF3FF"/>
    <text x="20" y="252" fill="#335FE6" font-size="8.5" font-weight="800" font-family="Arial, Apple SD Gothic Neo, Noto Sans KR, sans-serif">Lv.1 학습 습관 형성 단계</text>
    <rect x="16" y="266" width="42" height="18" rx="9" fill="#EAF3FF"/>
    <text x="23" y="278" fill="#2190FF" font-size="8.5" font-weight="800" font-family="Arial, Apple SD Gothic Neo, Noto Sans KR, sans-serif">습관 형성</text>
    <rect x="63" y="266" width="27" height="18" rx="9" fill="#FFF5E8"/>
    <text x="71" y="278" fill="#F18B16" font-size="8.5" font-weight="800" font-family="Arial, Apple SD Gothic Neo, Noto Sans KR, sans-serif">지각</text>
    <text x="16" y="300" fill="#111827" font-size="12" font-weight="800" font-family="Arial, Apple SD Gothic Neo, Noto Sans KR, sans-serif">지각 후 입실</text>

    <text x="126" y="228" fill="#7A8CAA" font-size="9" font-weight="700" font-family="Arial, Apple SD Gothic Neo, Noto Sans KR, sans-serif">학습시간 비교</text>
    <text x="190" y="228" fill="#2F64F6" font-size="11" font-weight="800" font-family="Arial, Apple SD Gothic Neo, Noto Sans KR, sans-serif">+77분</text>
    <text x="126" y="248" fill="#111827" font-size="11" font-weight="800" font-family="Arial, Apple SD Gothic Neo, Noto Sans KR, sans-serif">오늘</text>
    <text x="182" y="248" fill="#111827" font-size="11" font-weight="800" font-family="Arial, Apple SD Gothic Neo, Noto Sans KR, sans-serif">6시간 8분</text>
    <rect x="126" y="255" width="70" height="8" rx="4" fill="#E6EEFA"/>
    <rect x="126" y="255" width="70" height="8" rx="4" fill="#173F97"/>
    <text x="126" y="279" fill="#111827" font-size="11" font-weight="800" font-family="Arial, Apple SD Gothic Neo, Noto Sans KR, sans-serif">최근 7일 평균</text>
    <text x="176" y="279" fill="#111827" font-size="11" font-weight="800" font-family="Arial, Apple SD Gothic Neo, Noto Sans KR, sans-serif">4시간 51분</text>
    <rect x="126" y="286" width="62" height="8" rx="4" fill="#E6EEFA"/>
    <rect x="126" y="286" width="56" height="8" rx="4" fill="#CBD7E8"/>

    <text x="236" y="228" fill="#7A8CAA" font-size="9" font-weight="700" font-family="Arial, Apple SD Gothic Neo, Noto Sans KR, sans-serif">완료율 · 성장률</text>
    <text x="287" y="228" fill="#12A36B" font-size="11" font-weight="800" font-family="Arial, Apple SD Gothic Neo, Noto Sans KR, sans-serif">+26.5%</text>
    <text x="236" y="248" fill="#111827" font-size="10.5" font-weight="800" font-family="Arial, Apple SD Gothic Neo, Noto Sans KR, sans-serif">계획 완료율</text>
    <text x="301" y="248" fill="#111827" font-size="10.5" font-weight="800" font-family="Arial, Apple SD Gothic Neo, Noto Sans KR, sans-serif">0%</text>
    <rect x="236" y="255" width="70" height="8" rx="4" fill="#E6EEFA"/>
    <text x="236" y="275" fill="#E34A4A" font-size="10.5" font-weight="800" font-family="Arial, Apple SD Gothic Neo, Noto Sans KR, sans-serif">!</text>
    <text x="248" y="275" fill="#111827" font-size="10.5" font-weight="800" font-family="Arial, Apple SD Gothic Neo, Noto Sans KR, sans-serif">학습 흐름 안정적이지만</text>
    <text x="236" y="289" fill="#111827" font-size="10.5" font-weight="800" font-family="Arial, Apple SD Gothic Neo, Noto Sans KR, sans-serif">계획과 루틴은 보완</text>
    <text x="236" y="303" fill="#111827" font-size="10.5" font-weight="800" font-family="Arial, Apple SD Gothic Neo, Noto Sans KR, sans-serif">흐름입니다.</text>

    <rect x="4" y="326" width="156" height="164" rx="18" fill="url(#greenCard)" stroke="#BFE9D8"/>
    <rect x="172" y="326" width="156" height="164" rx="18" fill="url(#amberCard)" stroke="#F2D8A6"/>

    <circle cx="24" cy="346" r="5.5" fill="#E7FAF2" stroke="#53C59C" stroke-width="1.5"/>
    <circle cx="192" cy="346" r="5.5" fill="#FFF5E8" stroke="#FFAD32" stroke-width="1.5"/>
    <text x="38" y="350" fill="#43A97E" font-size="8.5" font-weight="800" font-family="Arial, Apple SD Gothic Neo, Noto Sans KR, sans-serif">오늘 잘한 점</text>
    <text x="206" y="350" fill="#F0A010" font-size="8.5" font-weight="800" font-family="Arial, Apple SD Gothic Neo, Noto Sans KR, sans-serif">코칭 포인트</text>
    <text x="16" y="374" fill="#121A2B" font-size="16" font-weight="800" font-family="Arial, Apple SD Gothic Neo, Noto Sans KR, sans-serif">유지할강점</text>
    <text x="184" y="374" fill="#121A2B" font-size="16" font-weight="800" font-family="Arial, Apple SD Gothic Neo, Noto Sans KR, sans-serif">먼저보완할 점</text>

    <rect x="16" y="394" width="132" height="76" rx="14" fill="#FFFFFF" stroke="#BEEAD7"/>
    <rect x="28" y="408" width="92" height="4.5" rx="2.25" fill="#D4F4E7"/>
    <rect x="28" y="408" width="56" height="4.5" rx="2.25" fill="#3DBA86"/>
    <text x="20" y="430" fill="#111827" font-size="10.5" font-weight="800" font-family="Arial, Apple SD Gothic Neo, Noto Sans KR, sans-serif">최근 7일 평균 대비 학습시간이</text>
    <text x="20" y="446" fill="#111827" font-size="10.5" font-weight="800" font-family="Arial, Apple SD Gothic Neo, Noto Sans KR, sans-serif">+26.5% 개선되었습니다.</text>

    <rect x="184" y="394" width="132" height="76" rx="14" fill="#FFFFFF" stroke="#F2D7A6"/>
    <rect x="196" y="408" width="88" height="4.5" rx="2.25" fill="#FFE4A8"/>
    <rect x="196" y="408" width="72" height="4.5" rx="2.25" fill="#FFBE1A"/>
    <text x="292" y="414" fill="#D38C0C" font-size="8.5" font-weight="800" font-family="Arial, Apple SD Gothic Neo, Noto Sans KR, sans-serif">우선</text>
    <text x="188" y="430" fill="#111827" font-size="10.5" font-weight="800" font-family="Arial, Apple SD Gothic Neo, Noto Sans KR, sans-serif">등원 직후 첫 과제 착수 시간을</text>
    <text x="188" y="446" fill="#111827" font-size="10.5" font-weight="800" font-family="Arial, Apple SD Gothic Neo, Noto Sans KR, sans-serif">더 일정하게 맞추는 훈련이</text>
    <text x="188" y="462" fill="#111827" font-size="10.5" font-weight="800" font-family="Arial, Apple SD Gothic Neo, Noto Sans KR, sans-serif">필요합니다.</text>
  </g>
</svg>
