<svg xmlns="http://www.w3.org/2000/svg" viewBox="0 0 640 460" role="img" aria-label="트랙 로고">
  <title>트랙 로고</title>

  <path d="M72 118C160 86 252 92 332 146V332C252 304 160 302 72 332V118Z" fill="#14295F" />
  <path d="M338 146C418 92 510 86 598 118V332C510 302 418 304 338 332V146Z" fill="#1E3566" />
  <path d="M335 148V220" stroke="#F6F8FC" stroke-width="12" stroke-linecap="round" />

  <path d="M68 256C212 236 366 196 490 92" fill="none" stroke="#F4F7FD" stroke-width="24" stroke-linecap="round" />
  <path d="M56 300C214 268 412 208 536 106" fill="none" stroke="#F98A00" stroke-width="34" stroke-linecap="round" />
  <path d="M90 338C252 292 440 226 550 114" fill="none" stroke="#F4F7FD" stroke-width="26" stroke-linecap="round" />
  <path d="M124 252C256 220 406 178 520 108" fill="none" stroke="#1C3363" stroke-opacity="0.6" stroke-width="3.5" stroke-linecap="round" />

  <path d="M498 18L516 54L556 58L528 84L536 124L498 104L460 124L468 84L440 58L480 54Z" fill="#F98A00" />
  <circle cx="512" cy="68" r="5.5" fill="#FFFFFF" opacity="0.95" />

  <path d="M72 332C168 304 258 308 338 350C418 308 508 304 598 332" fill="none" stroke="#11274F" stroke-width="17" stroke-linecap="round" />
  <path d="M76 326C170 302 258 306 338 346C418 306 506 302 594 326" fill="none" stroke="#F4F7FD" stroke-width="6.5" stroke-linecap="round" opacity="0.96" />
</svg>
