<svg xmlns="http://www.w3.org/2000/svg" viewBox="0 0 920 1040" role="img" aria-label="트랙 국어 관리형 스터디센터 로고">
  <title>트랙 국어 관리형 스터디센터 로고</title>

  <g transform="translate(236 154) scale(1.32)">
    <path d="M20 56C72 34 125 37 178 66V176C130 158 78 157 20 176V56Z" fill="#14295F" />
    <path d="M182 66C235 37 288 34 340 56V176C282 157 230 158 182 176V66Z" fill="#1E3566" />
    <path d="M180 66V140" stroke="#F2F4F8" stroke-width="8" stroke-linecap="round" />

    <path d="M20 150C120 132 229 106 286 34" fill="none" stroke="#F2F4F8" stroke-width="17" stroke-linecap="round" />
    <path d="M12 172C108 146 230 107 300 44" fill="none" stroke="#F98A00" stroke-width="20" stroke-linecap="round" />
    <path d="M38 182C138 152 247 112 309 49" fill="none" stroke="#F2F4F8" stroke-width="17" stroke-linecap="round" />

    <path d="M274 12L282 29L301 31L287 44L291 63L274 54L257 63L261 44L247 31L266 29Z" fill="#F98A00" />

    <path d="M20 182C76 163 130 165 180 191C230 165 284 163 340 182" fill="none" stroke="#1A2D58" stroke-width="13" stroke-linecap="round" />
    <path d="M20 181C76 164 130 166 180 190C230 166 284 164 340 181" fill="none" stroke="#F2F4F8" stroke-width="2.8" stroke-linecap="round" opacity="0.95" />
  </g>

  <text
    x="460"
    y="788"
    fill="#14295F"
    text-anchor="middle"
    font-family="Pretendard, 'Noto Sans KR', 'Apple SD Gothic Neo', sans-serif"
    font-size="134"
    font-weight="900"
    letter-spacing="-8"
  >
    트랙
  </text>

  <text
    x="460"
    y="912"
    fill="#6B7280"
    text-anchor="middle"
    font-family="Pretendard, 'Noto Sans KR', 'Apple SD Gothic Neo', sans-serif"
    font-size="68"
    font-weight="700"
    letter-spacing="-2"
  >
    국어 관리형 스터디센터
  </text>
</svg>
